M48
;Layer_Color=9474304
;FILE_FORMAT=2:5
INCH
;TYPE=PLATED
T1F00S00C0.01181
T2F00S00C0.04724
%
T01
X0505500Y0241500
X0502886Y0254886
X0510500Y0276000
X0498000Y0295500
X0548000Y0208500
Y0204000
Y0200000
X0553000
Y0204000
Y0208500
X0557500
X0562000
Y0204000
Y0200000
X0557500
Y0204000
X0463500Y0232000
Y0236500
Y0241000
Y0245500
Y0250000
Y0254500
Y0259000
X0458500
Y0254500
Y0250000
Y0245500
Y0241000
Y0236500
Y0232000
X0453000
Y0236500
Y0241000
Y0245500
Y0250000
Y0254500
Y0259000
X0448000
Y0254500
Y0250000
Y0245500
Y0241000
Y0236500
Y0232000
X0442500Y0236500
Y0241000
Y0245500
Y0250000
Y0254500
Y0259000
X0453500Y0277000
X0458000
X0462500
X0413000Y0282000
X0409000
X0408500Y0289000
Y0292500
X0404500
Y0289000
X0412500
Y0292500
X0416500
Y0289000
X0393665Y0267165
Y0262835
X0389335
Y0267165
X0389000Y0208000
X0384750
T02
X0479000Y0209250
X0509000Y0289250
X0429000
X0400250Y0226000
Y0216000
X0459000Y0209250
M30
