G04 Layer_Color=8421504*
%FSAX25Y25*%
%MOIN*%
G70*
G01*
G75*
%ADD10R,0.05315X0.01969*%
%ADD11R,0.07638X0.08543*%
%ADD12R,0.08504X0.07008*%
%ADD13R,0.03543X0.02362*%
%ADD14R,0.11811X0.09843*%
%ADD15R,0.03740X0.03543*%
%ADD16R,0.10000X0.10512*%
%ADD17R,0.05000X0.03000*%
%ADD18R,0.03150X0.03150*%
%ADD19R,0.06299X0.03543*%
%ADD20R,0.03150X0.03150*%
%ADD21R,0.15748X0.04331*%
%ADD22R,0.21654X0.15157*%
%ADD23R,0.28346X0.41732*%
%ADD24R,0.11024X0.04134*%
D10*
X0400260Y0261161D02*
D03*
Y0263720D02*
D03*
Y0266280D02*
D03*
Y0268839D02*
D03*
X0382740Y0261161D02*
D03*
Y0263720D02*
D03*
Y0266280D02*
D03*
Y0268839D02*
D03*
D11*
X0391500Y0265000D02*
D03*
D12*
X0555500Y0234374D02*
D03*
Y0218626D02*
D03*
D13*
X0377500Y0283453D02*
D03*
Y0277547D02*
D03*
X0381000Y0247547D02*
D03*
Y0253453D02*
D03*
X0374000Y0253453D02*
D03*
Y0247547D02*
D03*
X0369000Y0277500D02*
D03*
Y0271595D02*
D03*
X0503000Y0270953D02*
D03*
Y0265047D02*
D03*
X0510500Y0265047D02*
D03*
Y0270953D02*
D03*
X0411000Y0239547D02*
D03*
Y0245453D02*
D03*
D14*
X0426500Y0243327D02*
D03*
Y0221673D02*
D03*
D15*
X0401500Y0235110D02*
D03*
Y0248890D02*
D03*
D16*
X0420000Y0265744D02*
D03*
D17*
Y0275000D02*
D03*
D18*
X0402047Y0275500D02*
D03*
X0407953D02*
D03*
X0390453Y0240500D02*
D03*
X0384547D02*
D03*
X0412953Y0256500D02*
D03*
X0407047D02*
D03*
X0471953Y0199000D02*
D03*
X0466047D02*
D03*
D19*
X0385500Y0213898D02*
D03*
Y0226102D02*
D03*
D20*
X0367500Y0253453D02*
D03*
Y0247547D02*
D03*
X0498000Y0285547D02*
D03*
Y0291453D02*
D03*
X0443500Y0291453D02*
D03*
Y0285547D02*
D03*
D21*
X0537476Y0213000D02*
D03*
X0509524D02*
D03*
X0455524Y0283500D02*
D03*
X0483476D02*
D03*
D22*
X0541500Y0250913D02*
D03*
Y0290087D02*
D03*
D23*
X0454252Y0241500D02*
D03*
D24*
X0494409Y0254886D02*
D03*
Y0248193D02*
D03*
Y0241500D02*
D03*
Y0234807D02*
D03*
Y0228114D02*
D03*
M02*
