G04 Layer_Physical_Order=1*
G04 Layer_Color=255*
%FSAX25Y25*%
%MOIN*%
G70*
G01*
G75*
%ADD10R,0.05315X0.01969*%
%ADD11R,0.07638X0.08543*%
%ADD12R,0.08504X0.07008*%
%ADD13R,0.03543X0.02362*%
%ADD14R,0.11811X0.09843*%
%ADD15R,0.03740X0.03543*%
%ADD16R,0.10000X0.10512*%
%ADD17R,0.05000X0.03000*%
%ADD18R,0.03150X0.03150*%
%ADD19R,0.06299X0.03543*%
%ADD20R,0.03150X0.03150*%
%ADD21R,0.15748X0.04331*%
%ADD22R,0.21654X0.15157*%
%ADD23R,0.28346X0.41732*%
%ADD24R,0.11024X0.04134*%
%ADD25C,0.07874*%
%ADD26C,0.04724*%
%ADD27C,0.03937*%
%ADD28C,0.01969*%
%ADD29C,0.05906*%
%ADD30C,0.01181*%
%ADD31C,0.01575*%
%ADD32C,0.00800*%
%ADD33R,0.07000X0.04500*%
%ADD34R,0.05000X0.14000*%
%ADD35R,0.04500X0.05000*%
%ADD36R,0.18000X0.20721*%
%ADD37R,0.10000X0.21500*%
%ADD38R,0.03000X0.07500*%
%ADD39R,0.18000X0.13000*%
%ADD40R,0.19000X0.09000*%
%ADD41R,0.11500X0.21500*%
%ADD42R,0.08000X0.24500*%
%ADD43R,0.07000X0.09500*%
%ADD44R,0.25000X0.26000*%
%ADD45R,0.10000X0.10500*%
%ADD46R,0.16000X0.13000*%
%ADD47R,0.11811X0.11811*%
%ADD48R,0.11811X0.07874*%
%ADD49C,0.02362*%
D10*
X0400260Y0261161D02*
D03*
Y0263720D02*
D03*
Y0266280D02*
D03*
Y0268839D02*
D03*
X0382740Y0261161D02*
D03*
Y0263720D02*
D03*
Y0266280D02*
D03*
Y0268839D02*
D03*
D11*
X0391500Y0265000D02*
D03*
D12*
X0555500Y0234374D02*
D03*
Y0218626D02*
D03*
D13*
X0377500Y0283453D02*
D03*
Y0277547D02*
D03*
X0381000Y0247547D02*
D03*
Y0253453D02*
D03*
X0374000Y0253453D02*
D03*
Y0247547D02*
D03*
X0369000Y0277500D02*
D03*
Y0271595D02*
D03*
X0503000Y0270953D02*
D03*
Y0265047D02*
D03*
X0510500Y0265047D02*
D03*
Y0270953D02*
D03*
X0411000Y0239547D02*
D03*
Y0245453D02*
D03*
D14*
X0426500Y0243327D02*
D03*
Y0221673D02*
D03*
D15*
X0401500Y0235110D02*
D03*
Y0248890D02*
D03*
D16*
X0420000Y0265744D02*
D03*
D17*
Y0275000D02*
D03*
D18*
X0402047Y0275500D02*
D03*
X0407953D02*
D03*
X0390453Y0240500D02*
D03*
X0384547D02*
D03*
X0412953Y0256500D02*
D03*
X0407047D02*
D03*
X0471953Y0199000D02*
D03*
X0466047D02*
D03*
D19*
X0385500Y0213898D02*
D03*
Y0226102D02*
D03*
D20*
X0367500Y0253453D02*
D03*
Y0247547D02*
D03*
X0498000Y0285547D02*
D03*
Y0291453D02*
D03*
X0443500Y0291453D02*
D03*
Y0285547D02*
D03*
D21*
X0537476Y0213000D02*
D03*
X0509524D02*
D03*
X0455524Y0283500D02*
D03*
X0483476D02*
D03*
D22*
X0541500Y0250913D02*
D03*
Y0290087D02*
D03*
D23*
X0454252Y0241500D02*
D03*
D24*
X0494409Y0254886D02*
D03*
Y0248193D02*
D03*
Y0241500D02*
D03*
Y0234807D02*
D03*
Y0228114D02*
D03*
D25*
X0479000Y0209250D02*
X0492750D01*
X0509837Y0290087D02*
X0541500D01*
X0509000Y0289250D02*
X0509837Y0290087D01*
X0434750Y0283500D02*
X0455524D01*
X0429000Y0289250D02*
X0434750Y0283500D01*
X0492750Y0209250D02*
X0498500Y0215000D01*
X0507524D01*
X0509524Y0213000D01*
Y0224976D01*
X0385602Y0226000D02*
X0400250D01*
X0418327Y0221673D02*
X0426500D01*
X0414000Y0226000D02*
X0418327Y0221673D01*
X0400250Y0226000D02*
X0414000D01*
X0483476Y0283500D02*
X0503000D01*
Y0283250D02*
Y0283500D01*
D26*
X0494409Y0234807D02*
X0555067D01*
X0546587Y0250913D02*
X0555500Y0242000D01*
Y0234374D02*
Y0242000D01*
D27*
X0555067Y0234807D02*
X0555500Y0234374D01*
X0494409Y0241500D02*
X0505500D01*
X0494409Y0254886D02*
X0502886D01*
X0541500Y0250913D02*
X0546587D01*
X0494409Y0228114D02*
X0506386D01*
X0454252Y0241500D02*
X0494409D01*
X0467638Y0254886D02*
X0494409D01*
X0454252Y0241500D02*
X0467638Y0254886D01*
X0537476Y0213000D02*
X0543500D01*
X0548000Y0208500D01*
X0498000Y0291453D02*
Y0295500D01*
X0385500Y0213898D02*
X0398148D01*
X0385500Y0207500D02*
Y0213898D01*
X0385000Y0208000D02*
X0385500Y0207500D01*
X0384750Y0208000D02*
X0385000D01*
D28*
X0494409Y0248193D02*
X0508693D01*
X0510500Y0250000D01*
Y0265047D01*
X0503000D02*
X0510500D01*
X0503000Y0265047D02*
X0503000Y0265047D01*
X0503000Y0270953D02*
Y0283250D01*
X0503250Y0283500D02*
X0509000Y0289250D01*
X0510500Y0270953D02*
Y0276000D01*
X0479000Y0209250D02*
X0479500Y0208750D01*
X0459000Y0201500D02*
Y0209250D01*
Y0201500D02*
X0461500Y0199000D01*
X0466047D01*
X0479500Y0202000D02*
Y0208750D01*
X0476500Y0199000D02*
X0479500Y0202000D01*
X0471953Y0199000D02*
X0476500D01*
X0369000Y0277500D02*
Y0282000D01*
X0370453Y0283453D01*
X0377500D01*
X0387547D01*
X0391500Y0279500D01*
Y0268500D02*
Y0279500D01*
X0419000Y0276000D02*
X0420000Y0275000D01*
X0402047Y0275500D02*
Y0287047D01*
X0402500Y0287500D01*
X0417500D01*
X0419000Y0286000D01*
Y0276000D02*
Y0286000D01*
X0443500Y0291453D02*
X0475524D01*
X0483476Y0283500D01*
D29*
X0506386Y0228114D02*
X0509524Y0224976D01*
D30*
X0400260Y0266280D02*
X0407279D01*
X0408547Y0267547D01*
X0400260Y0268839D02*
X0408339D01*
X0408547Y0269047D01*
Y0267547D02*
Y0269047D01*
Y0281547D01*
X0409000Y0282000D01*
X0423000Y0257500D02*
X0424000Y0256500D01*
X0412953D02*
X0424000D01*
X0425000Y0244827D02*
X0426500Y0243327D01*
X0423000Y0257500D02*
X0425000Y0244827D01*
X0423000Y0257500D02*
Y0264744D01*
X0412953Y0247406D02*
Y0256500D01*
X0411000Y0245453D02*
X0412953Y0247406D01*
X0367500Y0253453D02*
X0374000D01*
Y0263500D01*
X0371280Y0263720D02*
X0382740D01*
X0369000Y0266000D02*
Y0271595D01*
X0377500Y0266500D02*
Y0277547D01*
Y0266500D02*
X0377720Y0266280D01*
X0382740D01*
X0381000Y0253453D02*
X0382000Y0254453D01*
Y0260421D02*
X0382740Y0261161D01*
X0369000Y0266000D02*
X0371280Y0263720D01*
D31*
X0400260D02*
X0423976D01*
X0400260Y0257740D02*
Y0261161D01*
Y0257740D02*
X0401500Y0256500D01*
X0407047D01*
X0385500Y0226102D02*
X0385602Y0226000D01*
X0401500Y0227250D02*
Y0235110D01*
X0400250Y0226000D02*
X0401500Y0227250D01*
Y0248890D02*
Y0256500D01*
X0374000Y0230500D02*
Y0247547D01*
Y0230500D02*
X0378398Y0226102D01*
X0385500D01*
X0367500Y0247547D02*
X0374000D01*
X0401500Y0235110D02*
X0405937Y0239547D01*
X0411000D01*
X0382000Y0254453D02*
Y0260421D01*
D32*
X0382740Y0268839D02*
X0391161D01*
X0391500Y0268500D01*
X0381000Y0244047D02*
Y0247547D01*
Y0244047D02*
X0384547Y0240500D01*
X0390453Y0263953D02*
X0391500Y0265000D01*
X0390453Y0240500D02*
Y0263953D01*
X0398148Y0213898D02*
X0400250Y0216000D01*
D33*
X0407500Y0267750D02*
D03*
D34*
X0408500Y0277000D02*
D03*
D35*
X0413250Y0281500D02*
D03*
D36*
X0423000Y0253360D02*
D03*
D37*
X0415000Y0253750D02*
D03*
D38*
X0409000Y0246750D02*
D03*
D39*
X0407500Y0234000D02*
D03*
D40*
X0410500Y0290000D02*
D03*
D41*
X0458750Y0214250D02*
D03*
D42*
X0391500Y0249250D02*
D03*
D43*
X0382500Y0243750D02*
D03*
D44*
X0554000Y0209500D02*
D03*
D45*
X0387500Y0210750D02*
D03*
D46*
X0458500Y0281000D02*
D03*
D47*
X0429000Y0289250D02*
D03*
X0479000Y0209250D02*
D03*
X0509000Y0289250D02*
D03*
X0459000Y0209250D02*
D03*
D48*
X0400250Y0226000D02*
D03*
Y0216000D02*
D03*
D49*
X0393665Y0262835D02*
D03*
X0389335D02*
D03*
X0393665Y0267165D02*
D03*
X0389335D02*
D03*
X0505500Y0241500D02*
D03*
X0502886Y0254886D02*
D03*
X0510500Y0276000D02*
D03*
X0409000Y0282000D02*
D03*
X0413000D02*
D03*
X0404500Y0292500D02*
D03*
X0408500D02*
D03*
X0412500D02*
D03*
X0416500D02*
D03*
Y0289000D02*
D03*
X0412500D02*
D03*
X0408500D02*
D03*
X0404500D02*
D03*
X0442500Y0259000D02*
D03*
X0448000D02*
D03*
X0453000D02*
D03*
X0458500D02*
D03*
X0463500D02*
D03*
Y0254500D02*
D03*
X0458500D02*
D03*
X0453000D02*
D03*
X0448000D02*
D03*
X0442500D02*
D03*
X0463500Y0250000D02*
D03*
X0458500D02*
D03*
X0453000D02*
D03*
X0448000D02*
D03*
X0442500D02*
D03*
X0463500Y0245500D02*
D03*
X0458500D02*
D03*
X0453000D02*
D03*
X0448000D02*
D03*
X0442500D02*
D03*
X0463500Y0241000D02*
D03*
X0458500D02*
D03*
X0453000D02*
D03*
X0448000D02*
D03*
X0442500D02*
D03*
X0463500Y0236500D02*
D03*
X0458500D02*
D03*
X0453000D02*
D03*
X0448000D02*
D03*
X0442500D02*
D03*
X0463500Y0232000D02*
D03*
X0458500D02*
D03*
X0453000D02*
D03*
X0448000D02*
D03*
X0548000Y0208500D02*
D03*
X0553000D02*
D03*
X0557500D02*
D03*
X0562000D02*
D03*
Y0204000D02*
D03*
X0557500D02*
D03*
X0553000D02*
D03*
X0548000D02*
D03*
X0562000Y0200000D02*
D03*
X0557500D02*
D03*
X0553000D02*
D03*
X0548000D02*
D03*
X0498000Y0295500D02*
D03*
X0384750Y0208000D02*
D03*
X0389000D02*
D03*
X0453500Y0277000D02*
D03*
X0458000D02*
D03*
X0462500D02*
D03*
M02*
