G04 Layer_Physical_Order=2*
G04 Layer_Color=16711680*
%FSAX25Y25*%
%MOIN*%
G70*
G01*
G75*
%ADD25C,0.07874*%
%ADD47R,0.11811X0.11811*%
%ADD48R,0.11811X0.07874*%
%ADD49C,0.02362*%
G36*
X0567237Y0196013D02*
X0364013D01*
Y0300487D01*
X0421500D01*
X0421500Y0280679D01*
X0421000Y0280472D01*
X0415986Y0285486D01*
X0415038Y0286213D01*
X0413934Y0286670D01*
X0412750Y0286826D01*
X0409250D01*
X0408066Y0286670D01*
X0406962Y0286213D01*
X0406014Y0285486D01*
X0405287Y0284538D01*
X0404830Y0283434D01*
X0404674Y0282250D01*
X0404830Y0281066D01*
X0405287Y0279962D01*
X0406014Y0279014D01*
X0406962Y0278287D01*
X0408066Y0277830D01*
X0409250Y0277674D01*
X0410854D01*
X0428924Y0259605D01*
Y0234000D01*
X0429080Y0232816D01*
X0429537Y0231712D01*
X0430264Y0230764D01*
X0431000Y0230028D01*
Y0215000D01*
X0438000D01*
Y0222375D01*
X0438462Y0222566D01*
X0439764Y0221264D01*
X0440712Y0220537D01*
X0441816Y0220080D01*
X0443000Y0219924D01*
X0467104D01*
X0472495Y0214534D01*
Y0202745D01*
X0485505D01*
Y0215756D01*
X0483391D01*
X0482963Y0216788D01*
X0482236Y0217736D01*
X0472236Y0227736D01*
X0471288Y0228463D01*
X0470184Y0228920D01*
X0469000Y0229076D01*
X0444896D01*
X0438076Y0235895D01*
Y0261500D01*
X0438000Y0262078D01*
Y0300487D01*
X0567237D01*
Y0196013D01*
D02*
G37*
%LPC*%
G36*
X0406755Y0230537D02*
X0393744D01*
Y0221463D01*
X0406755D01*
Y0230537D01*
D02*
G37*
G36*
X0515506Y0295756D02*
X0502494D01*
Y0282745D01*
X0515506D01*
Y0295756D01*
D02*
G37*
%LPD*%
D25*
X0479000Y0209250D02*
Y0214500D01*
X0469000Y0224500D02*
X0479000Y0214500D01*
X0443000Y0224500D02*
X0469000D01*
X0433500Y0234000D02*
X0443000Y0224500D01*
X0433500Y0234000D02*
Y0261500D01*
X0409250Y0282250D02*
X0412750D01*
X0433500Y0261500D01*
D47*
X0429000Y0289250D02*
D03*
X0479000Y0209250D02*
D03*
X0509000Y0289250D02*
D03*
X0459000Y0209250D02*
D03*
D48*
X0400250Y0226000D02*
D03*
Y0216000D02*
D03*
D49*
X0393665Y0262835D02*
D03*
X0389335D02*
D03*
X0393665Y0267165D02*
D03*
X0389335D02*
D03*
X0505500Y0241500D02*
D03*
X0502886Y0254886D02*
D03*
X0510500Y0276000D02*
D03*
X0409000Y0282000D02*
D03*
X0413000D02*
D03*
X0404500Y0292500D02*
D03*
X0408500D02*
D03*
X0412500D02*
D03*
X0416500D02*
D03*
Y0289000D02*
D03*
X0412500D02*
D03*
X0408500D02*
D03*
X0404500D02*
D03*
X0442500Y0259000D02*
D03*
X0448000D02*
D03*
X0453000D02*
D03*
X0458500D02*
D03*
X0463500D02*
D03*
Y0254500D02*
D03*
X0458500D02*
D03*
X0453000D02*
D03*
X0448000D02*
D03*
X0442500D02*
D03*
X0463500Y0250000D02*
D03*
X0458500D02*
D03*
X0453000D02*
D03*
X0448000D02*
D03*
X0442500D02*
D03*
X0463500Y0245500D02*
D03*
X0458500D02*
D03*
X0453000D02*
D03*
X0448000D02*
D03*
X0442500D02*
D03*
X0463500Y0241000D02*
D03*
X0458500D02*
D03*
X0453000D02*
D03*
X0448000D02*
D03*
X0442500D02*
D03*
X0463500Y0236500D02*
D03*
X0458500D02*
D03*
X0453000D02*
D03*
X0448000D02*
D03*
X0442500D02*
D03*
X0463500Y0232000D02*
D03*
X0458500D02*
D03*
X0453000D02*
D03*
X0448000D02*
D03*
X0548000Y0208500D02*
D03*
X0553000D02*
D03*
X0557500D02*
D03*
X0562000D02*
D03*
Y0204000D02*
D03*
X0557500D02*
D03*
X0553000D02*
D03*
X0548000D02*
D03*
X0562000Y0200000D02*
D03*
X0557500D02*
D03*
X0553000D02*
D03*
X0548000D02*
D03*
X0498000Y0295500D02*
D03*
X0384750Y0208000D02*
D03*
X0389000D02*
D03*
X0453500Y0277000D02*
D03*
X0458000D02*
D03*
X0462500D02*
D03*
M02*
