G04 Layer_Color=16711935*
%FSAX25Y25*%
%MOIN*%
G70*
G01*
G75*
%ADD68R,0.12611X0.12611*%
%ADD69R,0.12611X0.08674*%
%ADD70C,0.03162*%
D68*
X0429000Y0289250D02*
D03*
X0479000Y0209250D02*
D03*
X0509000Y0289250D02*
D03*
X0459000Y0209250D02*
D03*
D69*
X0400250Y0226000D02*
D03*
Y0216000D02*
D03*
D70*
X0393665Y0262835D02*
D03*
X0389335D02*
D03*
X0393665Y0267165D02*
D03*
X0389335D02*
D03*
X0442500Y0259000D02*
D03*
X0448000D02*
D03*
X0453000D02*
D03*
X0458500D02*
D03*
X0463500D02*
D03*
Y0254500D02*
D03*
X0458500D02*
D03*
X0453000D02*
D03*
X0448000D02*
D03*
X0442500D02*
D03*
X0463500Y0250000D02*
D03*
X0458500D02*
D03*
X0453000D02*
D03*
X0448000D02*
D03*
X0442500D02*
D03*
X0463500Y0245500D02*
D03*
X0458500D02*
D03*
X0453000D02*
D03*
X0448000D02*
D03*
X0442500D02*
D03*
X0463500Y0241000D02*
D03*
X0458500D02*
D03*
X0453000D02*
D03*
X0448000D02*
D03*
X0442500D02*
D03*
X0463500Y0236500D02*
D03*
X0458500D02*
D03*
X0453000D02*
D03*
X0448000D02*
D03*
X0442500D02*
D03*
X0463500Y0232000D02*
D03*
X0458500D02*
D03*
X0453000D02*
D03*
X0448000D02*
D03*
M02*
