G04 Layer_Color=65535*
%FSAX25Y25*%
%MOIN*%
G70*
G01*
G75*
%ADD50C,0.00984*%
%ADD51C,0.00394*%
%ADD52C,0.00787*%
D50*
X0400752Y0258012D02*
G03*
X0400752Y0258012I-0000492J0000000D01*
G01*
X0561846Y0237524D02*
G03*
X0561846Y0237524I-0000440J0000000D01*
G01*
X0494902Y0223882D02*
G03*
X0494902Y0223882I-0000492J0000000D01*
G01*
D51*
X0404748Y0250268D02*
G03*
X0404748Y0250268I-0000197J0000000D01*
G01*
D52*
X0540411Y0213000D02*
G03*
X0540411Y0213000I-0016911J0000000D01*
G01*
X0486411Y0283500D02*
G03*
X0486411Y0283500I-0016911J0000000D01*
G01*
X0386972Y0258898D02*
X0396028D01*
X0386972Y0271102D02*
X0396028D01*
X0550382Y0217445D02*
Y0235555D01*
X0561012Y0217445D02*
Y0235555D01*
X0374500Y0275000D02*
Y0286000D01*
Y0275000D02*
X0380500D01*
Y0286000D01*
X0374500D02*
X0380500D01*
X0384000Y0245000D02*
Y0256000D01*
X0378000D02*
X0384000D01*
X0378000Y0245000D02*
Y0256000D01*
Y0245000D02*
X0384000D01*
X0371000D02*
Y0256000D01*
Y0245000D02*
X0377000D01*
Y0256000D01*
X0371000D02*
X0377000D01*
X0366000Y0269047D02*
Y0280047D01*
Y0269047D02*
X0372000D01*
Y0280047D01*
X0366000D02*
X0372000D01*
X0435752Y0219114D02*
Y0245886D01*
X0417248Y0219114D02*
Y0245886D01*
X0433980D02*
X0435752D01*
X0433980Y0219114D02*
X0435752D01*
X0417248Y0245886D02*
X0419020D01*
X0417248Y0219114D02*
X0419020D01*
X0404650Y0234913D02*
X0405437D01*
Y0249087D01*
X0404650D02*
X0405437D01*
X0397563D02*
X0398350D01*
X0397563Y0234913D02*
Y0249087D01*
Y0234913D02*
X0398350D01*
X0424724Y0272043D02*
Y0277949D01*
X0415276D02*
X0424724D01*
X0415276Y0272043D02*
Y0277949D01*
X0410750Y0272750D02*
Y0278250D01*
X0399250D02*
X0410750D01*
X0399250Y0272750D02*
Y0278250D01*
Y0272750D02*
X0410750D01*
X0381750Y0237750D02*
Y0243250D01*
Y0237750D02*
X0393250D01*
Y0243250D01*
X0381750D02*
X0393250D01*
X0404250Y0253750D02*
Y0259250D01*
Y0253750D02*
X0415750D01*
Y0259250D01*
X0404250D02*
X0415750D01*
X0381000Y0211000D02*
X0390000D01*
Y0229000D01*
X0381000D02*
X0390000D01*
X0381000Y0211000D02*
Y0229000D01*
X0364750Y0244750D02*
X0370250D01*
Y0256250D01*
X0364750D02*
X0370250D01*
X0364750Y0244750D02*
Y0256250D01*
X0506571Y0223236D02*
X0513264Y0229929D01*
X0506571Y0202764D02*
Y0223236D01*
X0513264Y0229929D02*
X0540429D01*
X0506571Y0202764D02*
X0513264Y0196071D01*
X0540429D01*
Y0225598D02*
Y0229929D01*
Y0196071D02*
Y0225598D01*
X0529012Y0196858D02*
Y0229142D01*
X0463250Y0196250D02*
X0474750D01*
X0463250D02*
Y0201750D01*
X0474750D01*
Y0196250D02*
Y0201750D01*
X0479736Y0266571D02*
X0486429Y0273264D01*
Y0293736D01*
X0452571Y0266571D02*
X0479736D01*
Y0300429D02*
X0486429Y0293736D01*
X0452571Y0300429D02*
X0479736D01*
X0452571Y0266571D02*
Y0270902D01*
Y0300429D01*
X0463988Y0267358D02*
Y0299642D01*
X0495250Y0282750D02*
Y0294250D01*
X0500750D01*
Y0282750D02*
Y0294250D01*
X0495250Y0282750D02*
X0500750D01*
X0446250D02*
Y0294250D01*
X0440750Y0282750D02*
X0446250D01*
X0440750D02*
Y0294250D01*
X0446250D01*
X0553311Y0245697D02*
X0566303D01*
Y0295303D01*
X0516697Y0245697D02*
Y0295303D01*
Y0245697D02*
X0529689D01*
X0553311Y0295303D02*
X0566303D01*
X0516697D02*
X0529689D01*
X0500000Y0262500D02*
X0506000D01*
X0500000D02*
Y0273500D01*
X0506000D01*
Y0262500D02*
Y0273500D01*
X0470000Y0261972D02*
X0481811D01*
Y0221028D02*
Y0261972D01*
X0470000Y0221028D02*
X0481811D01*
X0507500Y0273500D02*
X0513500D01*
Y0262500D02*
Y0273500D01*
X0507500Y0262500D02*
X0513500D01*
X0507500D02*
Y0273500D01*
X0408000Y0248000D02*
X0414000D01*
Y0237000D02*
Y0248000D01*
X0408000Y0237000D02*
X0414000D01*
X0408000D02*
Y0248000D01*
X0413000Y0213500D02*
Y0224000D01*
X0411500Y0225500D02*
X0413000Y0224000D01*
X0407500Y0225500D02*
X0411500D01*
X0402000Y0202000D02*
X0407500D01*
X0400500Y0203500D02*
X0402000Y0202000D01*
X0400500Y0203500D02*
Y0210500D01*
X0543000Y0234436D02*
Y0230500D01*
X0544968D01*
X0545624Y0231156D01*
Y0233780D01*
X0544968Y0234436D01*
X0543000D01*
X0546936Y0230500D02*
X0548248D01*
X0547592D01*
Y0234436D01*
X0546936Y0233780D01*
X0385000Y0276936D02*
Y0273656D01*
X0385656Y0273000D01*
X0386968D01*
X0387624Y0273656D01*
Y0276936D01*
X0391560Y0273000D02*
X0388936D01*
X0391560Y0275624D01*
Y0276280D01*
X0390904Y0276936D01*
X0389592D01*
X0388936Y0276280D01*
X0374500Y0289000D02*
Y0292936D01*
X0376468D01*
X0377124Y0292280D01*
Y0290968D01*
X0376468Y0290312D01*
X0374500D01*
X0375812D02*
X0377124Y0289000D01*
X0381060Y0292936D02*
X0379748Y0292280D01*
X0378436Y0290968D01*
Y0289656D01*
X0379092Y0289000D01*
X0380404D01*
X0381060Y0289656D01*
Y0290312D01*
X0380404Y0290968D01*
X0378436D01*
X0386000Y0251500D02*
Y0255436D01*
X0387968D01*
X0388624Y0254780D01*
Y0253468D01*
X0387968Y0252812D01*
X0386000D01*
X0387312D02*
X0388624Y0251500D01*
X0392560Y0255436D02*
X0389936D01*
Y0253468D01*
X0391248Y0254124D01*
X0391904D01*
X0392560Y0253468D01*
Y0252156D01*
X0391904Y0251500D01*
X0390592D01*
X0389936Y0252156D01*
X0376500Y0235000D02*
X0372564D01*
Y0236968D01*
X0373220Y0237624D01*
X0374532D01*
X0375188Y0236968D01*
Y0235000D01*
Y0236312D02*
X0376500Y0237624D01*
X0373220Y0238936D02*
X0372564Y0239592D01*
Y0240904D01*
X0373220Y0241560D01*
X0373876D01*
X0374532Y0240904D01*
Y0240248D01*
Y0240904D01*
X0375188Y0241560D01*
X0375844D01*
X0376500Y0240904D01*
Y0239592D01*
X0375844Y0238936D01*
X0366000Y0282500D02*
Y0286436D01*
X0367968D01*
X0368624Y0285780D01*
Y0284468D01*
X0367968Y0283812D01*
X0366000D01*
X0367312D02*
X0368624Y0282500D01*
X0371904D02*
Y0286436D01*
X0369936Y0284468D01*
X0372560D01*
X0423500Y0214936D02*
Y0211000D01*
X0426124D01*
X0430060D02*
X0427436D01*
X0430060Y0213624D01*
Y0214280D01*
X0429404Y0214936D01*
X0428092D01*
X0427436Y0214280D01*
X0388000Y0249436D02*
Y0245500D01*
X0389968D01*
X0390624Y0246156D01*
Y0248780D01*
X0389968Y0249436D01*
X0388000D01*
X0394560Y0245500D02*
X0391936D01*
X0394560Y0248124D01*
Y0248780D01*
X0393904Y0249436D01*
X0392592D01*
X0391936Y0248780D01*
X0427000Y0276436D02*
Y0272500D01*
X0428968D01*
X0429624Y0273156D01*
Y0275780D01*
X0428968Y0276436D01*
X0427000D01*
X0430936Y0275780D02*
X0431592Y0276436D01*
X0432904D01*
X0433560Y0275780D01*
Y0275124D01*
X0432904Y0274468D01*
X0432248D01*
X0432904D01*
X0433560Y0273812D01*
Y0273156D01*
X0432904Y0272500D01*
X0431592D01*
X0430936Y0273156D01*
X0400124Y0283780D02*
X0399468Y0284436D01*
X0398156D01*
X0397500Y0283780D01*
Y0281156D01*
X0398156Y0280500D01*
X0399468D01*
X0400124Y0281156D01*
X0401436Y0283780D02*
X0402092Y0284436D01*
X0403404D01*
X0404060Y0283780D01*
Y0283124D01*
X0403404Y0282468D01*
X0404060Y0281812D01*
Y0281156D01*
X0403404Y0280500D01*
X0402092D01*
X0401436Y0281156D01*
Y0281812D01*
X0402092Y0282468D01*
X0401436Y0283124D01*
Y0283780D01*
X0402092Y0282468D02*
X0403404D01*
X0383624Y0234780D02*
X0382968Y0235436D01*
X0381656D01*
X0381000Y0234780D01*
Y0232156D01*
X0381656Y0231500D01*
X0382968D01*
X0383624Y0232156D01*
X0384936Y0231500D02*
X0386248D01*
X0385592D01*
Y0235436D01*
X0384936Y0234780D01*
X0388215D02*
X0388872Y0235436D01*
X0390183D01*
X0390839Y0234780D01*
Y0232156D01*
X0390183Y0231500D01*
X0388872D01*
X0388215Y0232156D01*
Y0234780D01*
X0420624Y0257280D02*
X0419968Y0257936D01*
X0418656D01*
X0418000Y0257280D01*
Y0254656D01*
X0418656Y0254000D01*
X0419968D01*
X0420624Y0254656D01*
X0424560Y0257936D02*
X0423248Y0257280D01*
X0421936Y0255968D01*
Y0254656D01*
X0422592Y0254000D01*
X0423904D01*
X0424560Y0254656D01*
Y0255312D01*
X0423904Y0255968D01*
X0421936D01*
X0375124Y0214780D02*
X0374468Y0215436D01*
X0373156D01*
X0372500Y0214780D01*
Y0212156D01*
X0373156Y0211500D01*
X0374468D01*
X0375124Y0212156D01*
X0376436D02*
X0377092Y0211500D01*
X0378404D01*
X0379060Y0212156D01*
Y0214780D01*
X0378404Y0215436D01*
X0377092D01*
X0376436Y0214780D01*
Y0214124D01*
X0377092Y0213468D01*
X0379060D01*
X0366220Y0237624D02*
X0365564Y0236968D01*
Y0235656D01*
X0366220Y0235000D01*
X0368844D01*
X0369500Y0235656D01*
Y0236968D01*
X0368844Y0237624D01*
X0365564Y0238936D02*
Y0241560D01*
X0366220D01*
X0368844Y0238936D01*
X0369500D01*
X0502124Y0200780D02*
X0501468Y0201436D01*
X0500156D01*
X0499500Y0200780D01*
Y0198156D01*
X0500156Y0197500D01*
X0501468D01*
X0502124Y0198156D01*
X0503436Y0197500D02*
X0504748D01*
X0504092D01*
Y0201436D01*
X0503436Y0200780D01*
X0480124Y0200280D02*
X0479468Y0200936D01*
X0478156D01*
X0477500Y0200280D01*
Y0197656D01*
X0478156Y0197000D01*
X0479468D01*
X0480124Y0197656D01*
X0484060Y0197000D02*
X0481436D01*
X0484060Y0199624D01*
Y0200280D01*
X0483404Y0200936D01*
X0482092D01*
X0481436Y0200280D01*
X0445624Y0270280D02*
X0444968Y0270936D01*
X0443656D01*
X0443000Y0270280D01*
Y0267656D01*
X0443656Y0267000D01*
X0444968D01*
X0445624Y0267656D01*
X0446936Y0270280D02*
X0447592Y0270936D01*
X0448904D01*
X0449560Y0270280D01*
Y0269624D01*
X0448904Y0268968D01*
X0448248D01*
X0448904D01*
X0449560Y0268312D01*
Y0267656D01*
X0448904Y0267000D01*
X0447592D01*
X0446936Y0267656D01*
X0492624Y0279280D02*
X0491968Y0279936D01*
X0490656D01*
X0490000Y0279280D01*
Y0276656D01*
X0490656Y0276000D01*
X0491968D01*
X0492624Y0276656D01*
X0495904Y0276000D02*
Y0279936D01*
X0493936Y0277968D01*
X0496560D01*
X0443124Y0279780D02*
X0442468Y0280436D01*
X0441156D01*
X0440500Y0279780D01*
Y0277156D01*
X0441156Y0276500D01*
X0442468D01*
X0443124Y0277156D01*
X0447060Y0280436D02*
X0444436D01*
Y0278468D01*
X0445748Y0279124D01*
X0446404D01*
X0447060Y0278468D01*
Y0277156D01*
X0446404Y0276500D01*
X0445092D01*
X0444436Y0277156D01*
X0517500Y0242936D02*
Y0239000D01*
X0520124D01*
X0521436D02*
X0522748D01*
X0522092D01*
Y0242936D01*
X0521436Y0242280D01*
X0492500Y0262500D02*
Y0266436D01*
X0494468D01*
X0495124Y0265780D01*
Y0264468D01*
X0494468Y0263812D01*
X0492500D01*
X0493812D02*
X0495124Y0262500D01*
X0496436D02*
X0497748D01*
X0497092D01*
Y0266436D01*
X0496436Y0265780D01*
X0485500Y0221936D02*
Y0218656D01*
X0486156Y0218000D01*
X0487468D01*
X0488124Y0218656D01*
Y0221936D01*
X0489436Y0218000D02*
X0490748D01*
X0490092D01*
Y0221936D01*
X0489436Y0221280D01*
X0507000Y0256000D02*
Y0259936D01*
X0508968D01*
X0509624Y0259280D01*
Y0257968D01*
X0508968Y0257312D01*
X0507000D01*
X0508312D02*
X0509624Y0256000D01*
X0513560D02*
X0510936D01*
X0513560Y0258624D01*
Y0259280D01*
X0512904Y0259936D01*
X0511592D01*
X0510936Y0259280D01*
X0408500Y0231000D02*
Y0234936D01*
X0410468D01*
X0411124Y0234280D01*
Y0232968D01*
X0410468Y0232312D01*
X0408500D01*
X0409812D02*
X0411124Y0231000D01*
X0412436Y0234936D02*
X0415060D01*
Y0234280D01*
X0412436Y0231656D01*
Y0231000D01*
X0487500Y0211936D02*
Y0209312D01*
X0488812Y0208000D01*
X0490124Y0209312D01*
Y0211936D01*
X0491436D02*
X0492748D01*
X0492092D01*
Y0208000D01*
X0491436D01*
X0492748D01*
X0494715D02*
Y0211936D01*
X0497339Y0208000D01*
Y0211936D01*
X0498651Y0209968D02*
X0501275D01*
X0499963Y0211280D02*
Y0208656D01*
X0437000Y0211436D02*
Y0208812D01*
X0438312Y0207500D01*
X0439624Y0208812D01*
Y0211436D01*
X0440936D02*
X0442248D01*
X0441592D01*
Y0207500D01*
X0440936D01*
X0442248D01*
X0444215D02*
Y0211436D01*
X0446839Y0207500D01*
Y0211436D01*
X0448151Y0209468D02*
X0450775D01*
X0408500Y0208968D02*
X0411124D01*
X0409812Y0210280D02*
Y0207656D01*
X0412436D02*
X0413092Y0207000D01*
X0414404D01*
X0415060Y0207656D01*
Y0210280D01*
X0414404Y0210936D01*
X0413092D01*
X0412436Y0210280D01*
Y0209624D01*
X0413092Y0208968D01*
X0415060D01*
X0416371Y0210936D02*
Y0208312D01*
X0417683Y0207000D01*
X0418995Y0208312D01*
Y0210936D01*
X0412124Y0203280D02*
X0411468Y0203936D01*
X0410156D01*
X0409500Y0203280D01*
Y0200656D01*
X0410156Y0200000D01*
X0411468D01*
X0412124Y0200656D01*
Y0201968D01*
X0410812D01*
X0413436Y0200000D02*
Y0203936D01*
X0416060Y0200000D01*
Y0203936D01*
X0417372D02*
Y0200000D01*
X0419339D01*
X0419995Y0200656D01*
Y0203280D01*
X0419339Y0203936D01*
X0417372D01*
X0503500Y0297968D02*
X0506124D01*
X0504812Y0299280D02*
Y0296656D01*
X0510060Y0299936D02*
X0507436D01*
Y0297968D01*
X0508748Y0298624D01*
X0509404D01*
X0510060Y0297968D01*
Y0296656D01*
X0509404Y0296000D01*
X0508092D01*
X0507436Y0296656D01*
X0511372Y0299936D02*
Y0297312D01*
X0512683Y0296000D01*
X0513995Y0297312D01*
Y0299936D01*
X0426124Y0299280D02*
X0425468Y0299936D01*
X0424156D01*
X0423500Y0299280D01*
Y0296656D01*
X0424156Y0296000D01*
X0425468D01*
X0426124Y0296656D01*
Y0297968D01*
X0424812D01*
X0427436Y0296000D02*
Y0299936D01*
X0430060Y0296000D01*
Y0299936D01*
X0431371D02*
Y0296000D01*
X0433339D01*
X0433995Y0296656D01*
Y0299280D01*
X0433339Y0299936D01*
X0431371D01*
M02*
