G04 Layer_Color=16711935*
%FSAX25Y25*%
%MOIN*%
G70*
G01*
G75*
%ADD26C,0.04724*%
%ADD28C,0.01969*%
%ADD51C,0.00394*%
%ADD52C,0.00787*%
D26*
X0494207Y0224500D02*
G03*
X0494207Y0224500I-0000707J0000000D01*
G01*
D28*
X0396443Y0261000D02*
G03*
X0396443Y0261000I-0000943J0000000D01*
G01*
D51*
X0397602Y0258898D02*
Y0271102D01*
X0385398Y0258898D02*
Y0271102D01*
Y0258898D02*
X0397602D01*
X0385398Y0271102D02*
X0397602D01*
X0549594Y0238705D02*
X0561406D01*
X0549594Y0214295D02*
X0561406D01*
Y0238705D01*
X0549594Y0214295D02*
Y0238705D01*
X0380453Y0274988D02*
Y0286012D01*
X0374547Y0274988D02*
X0380453D01*
X0374547D02*
Y0286012D01*
X0380453D01*
X0378047Y0244988D02*
Y0256012D01*
X0383953D01*
Y0244988D02*
Y0256012D01*
X0378047Y0244988D02*
X0383953D01*
X0376953D02*
Y0256012D01*
X0371047Y0244988D02*
X0376953D01*
X0371047D02*
Y0256012D01*
X0376953D01*
X0371953Y0269035D02*
Y0280059D01*
X0366047Y0269035D02*
X0371953D01*
X0366047D02*
Y0280059D01*
X0371953D01*
X0417248Y0245886D02*
X0435752D01*
X0417248Y0219114D02*
X0435752D01*
Y0245886D01*
X0417248Y0219114D02*
Y0245886D01*
X0397563Y0234913D02*
Y0249087D01*
X0405437Y0234913D02*
Y0249087D01*
X0397563Y0234913D02*
X0405437D01*
X0397563Y0249087D02*
X0405437D01*
X0414094Y0259445D02*
X0425906D01*
Y0277949D01*
X0414094D02*
X0425906D01*
X0414094Y0259445D02*
Y0277949D01*
X0516697Y0245697D02*
X0566303D01*
Y0295303D01*
X0516697D02*
X0566303D01*
X0516697Y0245697D02*
Y0295303D01*
X0500047Y0262488D02*
X0505953D01*
Y0273512D01*
X0500047D02*
X0505953D01*
X0500047Y0262488D02*
Y0273512D01*
X0470000Y0239531D02*
Y0243468D01*
X0468032Y0241500D02*
X0471969D01*
X0439193Y0263350D02*
X0500807D01*
X0439193Y0219650D02*
X0500807D01*
X0439193D02*
Y0263350D01*
X0500807Y0219650D02*
Y0263350D01*
X0507547Y0273512D02*
X0513453D01*
X0507547Y0262488D02*
Y0273512D01*
Y0262488D02*
X0513453D01*
Y0273512D01*
X0408047Y0248012D02*
X0413953D01*
X0408047Y0236988D02*
Y0248012D01*
Y0236988D02*
X0413953D01*
Y0248012D01*
X0397000Y0263777D02*
Y0267713D01*
X0396213Y0268500D01*
X0394639D01*
X0393851Y0267713D01*
Y0263777D01*
X0389128Y0268500D02*
X0392277D01*
X0389128Y0265351D01*
Y0264564D01*
X0389916Y0263777D01*
X0391490D01*
X0392277Y0264564D01*
X0558254Y0234768D02*
X0553532D01*
Y0232406D01*
X0554319Y0231619D01*
X0557467D01*
X0558254Y0232406D01*
Y0234768D01*
X0553532Y0230045D02*
Y0228471D01*
Y0229258D01*
X0558254D01*
X0557467Y0230045D01*
X0375925Y0284831D02*
X0378287D01*
Y0283650D01*
X0377893Y0283256D01*
X0377106D01*
X0376712Y0283650D01*
Y0284831D01*
Y0284044D02*
X0375925Y0283256D01*
X0378287Y0280895D02*
X0377893Y0281682D01*
X0377106Y0282469D01*
X0376319D01*
X0375925Y0282076D01*
Y0281289D01*
X0376319Y0280895D01*
X0376712D01*
X0377106Y0281289D01*
Y0282469D01*
X0382575Y0246169D02*
X0380213D01*
Y0247350D01*
X0380607Y0247744D01*
X0381394D01*
X0381788Y0247350D01*
Y0246169D01*
Y0246956D02*
X0382575Y0247744D01*
X0380213Y0250105D02*
Y0248531D01*
X0381394D01*
X0381000Y0249318D01*
Y0249711D01*
X0381394Y0250105D01*
X0382181D01*
X0382575Y0249711D01*
Y0248924D01*
X0382181Y0248531D01*
X0372425Y0254831D02*
X0374787D01*
Y0253650D01*
X0374393Y0253256D01*
X0373606D01*
X0373212Y0253650D01*
Y0254831D01*
Y0254044D02*
X0372425Y0253256D01*
X0374393Y0252469D02*
X0374787Y0252076D01*
Y0251289D01*
X0374393Y0250895D01*
X0374000D01*
X0373606Y0251289D01*
Y0251682D01*
Y0251289D01*
X0373212Y0250895D01*
X0372819D01*
X0372425Y0251289D01*
Y0252076D01*
X0372819Y0252469D01*
X0367425Y0278878D02*
X0369787D01*
Y0277697D01*
X0369393Y0277304D01*
X0368606D01*
X0368212Y0277697D01*
Y0278878D01*
Y0278091D02*
X0367425Y0277304D01*
Y0275336D02*
X0369787D01*
X0368606Y0276517D01*
Y0274942D01*
X0428861Y0238799D02*
X0424138D01*
Y0235651D01*
Y0230928D02*
Y0234076D01*
X0427286Y0230928D01*
X0428074D01*
X0428861Y0231715D01*
Y0233289D01*
X0428074Y0234076D01*
X0403468Y0246724D02*
X0400319D01*
Y0245150D01*
X0400844Y0244625D01*
X0402943D01*
X0403468Y0245150D01*
Y0246724D01*
X0400319Y0241477D02*
Y0243576D01*
X0402418Y0241477D01*
X0402943D01*
X0403468Y0242002D01*
Y0243051D01*
X0402943Y0243576D01*
X0402824Y0276468D02*
X0402431Y0276861D01*
X0401644D01*
X0401250Y0276468D01*
Y0274894D01*
X0401644Y0274500D01*
X0402431D01*
X0402824Y0274894D01*
X0403611Y0276468D02*
X0404005Y0276861D01*
X0404792D01*
X0405186Y0276468D01*
Y0276074D01*
X0404792Y0275681D01*
X0405186Y0275287D01*
Y0274894D01*
X0404792Y0274500D01*
X0404005D01*
X0403611Y0274894D01*
Y0275287D01*
X0404005Y0275681D01*
X0403611Y0276074D01*
Y0276468D01*
X0404005Y0275681D02*
X0404792D01*
X0389676Y0239532D02*
X0390069Y0239139D01*
X0390856D01*
X0391250Y0239532D01*
Y0241106D01*
X0390856Y0241500D01*
X0390069D01*
X0389676Y0241106D01*
X0388889Y0241500D02*
X0388101D01*
X0388495D01*
Y0239139D01*
X0388889Y0239532D01*
X0386921D02*
X0386527Y0239139D01*
X0385740D01*
X0385346Y0239532D01*
Y0241106D01*
X0385740Y0241500D01*
X0386527D01*
X0386921Y0241106D01*
Y0239532D01*
X0412176Y0255532D02*
X0412569Y0255139D01*
X0413356D01*
X0413750Y0255532D01*
Y0257106D01*
X0413356Y0257500D01*
X0412569D01*
X0412176Y0257106D01*
X0409814Y0255139D02*
X0410601Y0255532D01*
X0411389Y0256319D01*
Y0257106D01*
X0410995Y0257500D01*
X0410208D01*
X0409814Y0257106D01*
Y0256713D01*
X0410208Y0256319D01*
X0411389D01*
X0383720Y0216624D02*
X0383064Y0215968D01*
Y0214656D01*
X0383720Y0214000D01*
X0386344D01*
X0387000Y0214656D01*
Y0215968D01*
X0386344Y0216624D01*
Y0217936D02*
X0387000Y0218592D01*
Y0219904D01*
X0386344Y0220560D01*
X0383720D01*
X0383064Y0219904D01*
Y0218592D01*
X0383720Y0217936D01*
X0384376D01*
X0385032Y0218592D01*
Y0220560D01*
X0368468Y0252676D02*
X0368861Y0253069D01*
Y0253856D01*
X0368468Y0254250D01*
X0366894D01*
X0366500Y0253856D01*
Y0253069D01*
X0366894Y0252676D01*
X0368861Y0251889D02*
Y0250314D01*
X0368468D01*
X0366894Y0251889D01*
X0366500D01*
X0466824Y0199968D02*
X0466431Y0200361D01*
X0465644D01*
X0465250Y0199968D01*
Y0198394D01*
X0465644Y0198000D01*
X0466431D01*
X0466824Y0198394D01*
X0469186Y0198000D02*
X0467611D01*
X0469186Y0199574D01*
Y0199968D01*
X0468792Y0200361D01*
X0468005D01*
X0467611Y0199968D01*
X0498968Y0290676D02*
X0499361Y0291069D01*
Y0291856D01*
X0498968Y0292250D01*
X0497394D01*
X0497000Y0291856D01*
Y0291069D01*
X0497394Y0290676D01*
X0497000Y0288708D02*
X0499361D01*
X0498181Y0289889D01*
Y0288314D01*
X0442532Y0286324D02*
X0442139Y0285931D01*
Y0285144D01*
X0442532Y0284750D01*
X0444106D01*
X0444500Y0285144D01*
Y0285931D01*
X0444106Y0286324D01*
X0442139Y0288686D02*
Y0287111D01*
X0443319D01*
X0442926Y0287899D01*
Y0288292D01*
X0443319Y0288686D01*
X0444106D01*
X0444500Y0288292D01*
Y0287505D01*
X0444106Y0287111D01*
X0504575Y0263669D02*
X0502213D01*
Y0264850D01*
X0502607Y0265244D01*
X0503394D01*
X0503788Y0264850D01*
Y0263669D01*
Y0264456D02*
X0504575Y0265244D01*
Y0266031D02*
Y0266818D01*
Y0266424D01*
X0502213D01*
X0502607Y0266031D01*
X0508925Y0272331D02*
X0511287D01*
Y0271150D01*
X0510893Y0270756D01*
X0510106D01*
X0509712Y0271150D01*
Y0272331D01*
Y0271544D02*
X0508925Y0270756D01*
Y0268395D02*
Y0269969D01*
X0510499Y0268395D01*
X0510893D01*
X0511287Y0268789D01*
Y0269576D01*
X0510893Y0269969D01*
X0409425Y0246831D02*
X0411787D01*
Y0245650D01*
X0411393Y0245256D01*
X0410606D01*
X0410212Y0245650D01*
Y0246831D01*
Y0246044D02*
X0409425Y0245256D01*
X0411787Y0244469D02*
Y0242895D01*
X0411393D01*
X0409819Y0244469D01*
X0409425D01*
D52*
X0560224Y0237130D02*
G03*
X0560224Y0237130I-0000394J0000000D01*
G01*
X0404650Y0247905D02*
G03*
X0404650Y0247905I-0000394J0000000D01*
G01*
X0540434Y0213000D02*
G03*
X0540434Y0213000I-0016934J0000000D01*
G01*
X0486434Y0283500D02*
G03*
X0486434Y0283500I-0016934J0000000D01*
G01*
X0399250Y0278250D02*
X0410750D01*
Y0272750D02*
Y0278250D01*
X0399250Y0272750D02*
X0410750D01*
X0399250D02*
Y0278250D01*
X0381750Y0237750D02*
X0393250D01*
X0381750D02*
Y0243250D01*
X0393250D01*
Y0237750D02*
Y0243250D01*
X0404250Y0253750D02*
X0415750D01*
X0404250D02*
Y0259250D01*
X0415750D01*
Y0253750D02*
Y0259250D01*
X0381000Y0211000D02*
Y0229000D01*
X0390000D01*
Y0211000D02*
Y0229000D01*
X0381000Y0211000D02*
X0390000D01*
X0370250Y0244750D02*
Y0256250D01*
X0364750Y0244750D02*
X0370250D01*
X0364750D02*
Y0256250D01*
X0370250D01*
X0529012Y0197252D02*
Y0229142D01*
X0540429Y0196071D02*
Y0229929D01*
X0506571D02*
X0540429D01*
X0506571Y0196071D02*
Y0229929D01*
Y0196071D02*
X0540429D01*
X0463250Y0196250D02*
Y0201750D01*
Y0196250D02*
X0474750D01*
Y0201750D01*
X0463250D02*
X0474750D01*
X0463988Y0267358D02*
Y0299248D01*
X0452571Y0266571D02*
Y0300429D01*
Y0266571D02*
X0486429D01*
Y0300429D01*
X0452571D02*
X0486429D01*
X0495250Y0294250D02*
X0500750D01*
X0495250Y0282750D02*
Y0294250D01*
Y0282750D02*
X0500750D01*
Y0294250D01*
X0440750Y0282750D02*
X0446250D01*
Y0294250D01*
X0440750D02*
X0446250D01*
X0440750Y0282750D02*
Y0294250D01*
X0417246Y0261807D02*
X0421969D01*
Y0264169D01*
X0421181Y0264956D01*
X0418033D01*
X0417246Y0264169D01*
Y0261807D01*
X0418033Y0266530D02*
X0417246Y0267317D01*
Y0268891D01*
X0418033Y0269678D01*
X0418820D01*
X0419607Y0268891D01*
Y0268104D01*
Y0268891D01*
X0420394Y0269678D01*
X0421181D01*
X0421969Y0268891D01*
Y0267317D01*
X0421181Y0266530D01*
X0521796Y0209590D02*
X0523108Y0208278D01*
X0525731D01*
X0527043Y0209590D01*
Y0214838D01*
X0525731Y0216150D01*
X0523108D01*
X0521796Y0214838D01*
X0519172Y0216150D02*
X0516548D01*
X0517860D01*
Y0208278D01*
X0519172Y0209590D01*
X0471204Y0286910D02*
X0469892Y0288222D01*
X0467269D01*
X0465957Y0286910D01*
Y0281662D01*
X0467269Y0280350D01*
X0469892D01*
X0471204Y0281662D01*
X0473828Y0286910D02*
X0475140Y0288222D01*
X0477764D01*
X0479076Y0286910D01*
Y0285598D01*
X0477764Y0284286D01*
X0476452D01*
X0477764D01*
X0479076Y0282974D01*
Y0281662D01*
X0477764Y0280350D01*
X0475140D01*
X0473828Y0281662D01*
X0538353Y0255146D02*
X0546224D01*
Y0260393D01*
Y0263017D02*
Y0265641D01*
Y0264329D01*
X0538353D01*
X0539665Y0263017D01*
X0451628Y0229000D02*
X0458188D01*
X0459500Y0230312D01*
Y0232936D01*
X0458188Y0234248D01*
X0451628D01*
X0459500Y0236872D02*
Y0239495D01*
Y0238183D01*
X0451628D01*
X0452940Y0236872D01*
M02*
